<?xml version="1.0" standalone="no"?>
<!DOCTYPE svg PUBLIC "-//W3C//DTD SVG 20010904//EN"
 "http://www.w3.org/TR/2001/REC-SVG-20010904/DTD/svg10.dtd">
<svg version="1.0" xmlns="http://www.w3.org/2000/svg"
 width="538.000000pt" height="534.000000pt" viewBox="0 0 538.000000 534.000000"
 preserveAspectRatio="xMidYMid meet">
<metadata>
Created by potrace 1.16, written by Peter Selinger 2001-2019
</metadata>
<g transform="translate(0.000000,534.000000) scale(0.100000,-0.100000)"
fill="#000000" stroke="none">
<path d="M2445 5129 c-526 -32 -1007 -182 -1382 -432 -661 -441 -1007 -1209
-980 -2177 11 -389 82 -689 237 -1005 291 -591 818 -1010 1509 -1200 680 -186
1505 -137 2121 127 663 284 1108 806 1279 1499 57 232 66 322 66 669 0 279 -3
333 -23 470 -111 730 -436 1275 -972 1630 -484 319 -1123 464 -1855 419z
m1585 -517 c492 -131 891 -555 1090 -1159 94 -285 125 -491 125 -823 0 -337
-30 -534 -126 -825 -184 -558 -558 -983 -991 -1128 -170 -57 -390 -74 -554
-42 -426 81 -795 399 -1035 890 -409 839 -297 1953 263 2620 133 158 281 279
445 363 205 105 331 134 553 128 113 -3 175 -9 230 -24z"/>
<path d="M3620 4519 c-98 -15 -265 -74 -355 -125 -370 -212 -660 -636 -783
-1144 -59 -240 -67 -318 -67 -625 1 -242 3 -297 22 -405 62 -353 165 -625 333
-877 251 -377 578 -589 945 -610 682 -39 1264 606 1401 1552 24 166 24 514 0
685 -95 691 -437 1239 -911 1461 -170 80 -407 115 -585 88z m772 -1151 c112
-52 196 -158 233 -293 8 -33 18 -112 22 -175 5 -97 2 -128 -15 -197 -65 -259
-279 -588 -614 -945 l-109 -118 -67 34 c-90 45 -240 145 -332 220 -220 180
-371 379 -440 582 -32 92 -34 108 -35 229 0 146 16 211 82 338 134 254 416
337 657 192 l59 -35 66 63 c110 107 189 138 336 134 83 -2 110 -7 157 -29z"/>
<path d="M4115 3273 c-101 -37 -174 -104 -248 -226 -31 -53 -35 -56 -41 -34
-9 38 -84 116 -140 144 -41 22 -69 28 -143 31 -81 4 -97 2 -145 -20 -29 -14
-64 -34 -77 -45 l-24 -19 38 -50 c101 -131 143 -323 106 -484 -18 -75 -72
-186 -116 -238 l-37 -43 43 -57 c94 -126 302 -306 477 -411 l73 -44 26 24 c44
41 225 250 290 334 147 194 267 404 313 545 19 61 24 95 23 185 -1 274 -98
411 -298 422 -50 3 -84 -2 -120 -14z"/>
</g>
</svg>
