<?xml version="1.0" standalone="no"?>
<!DOCTYPE svg PUBLIC "-//W3C//DTD SVG 20010904//EN"
 "http://www.w3.org/TR/2001/REC-SVG-20010904/DTD/svg10.dtd">
<svg version="1.0" xmlns="http://www.w3.org/2000/svg"
 width="58.000000pt" height="59.000000pt" viewBox="0 0 58.000000 59.000000"
 preserveAspectRatio="xMidYMid meet">
<metadata>
Created by potrace 1.16, written by Peter Selinger 2001-2019
</metadata>
<g transform="translate(0.000000,59.000000) scale(0.100000,-0.100000)"
fill="#000000" stroke="none">
<path d="M20 525 l0 -45 115 0 115 0 0 -115 0 -115 115 0 115 0 0 -115 0 -115
40 0 40 0 0 160 0 160 -115 0 -115 0 0 115 0 115 -155 0 -155 0 0 -45z"/>
<path d="M20 180 l0 -160 155 0 155 0 0 45 0 45 -115 0 -115 0 0 115 0 115
-40 0 -40 0 0 -160z"/>
</g>
</svg>
